#tb 0: 1/25
#media_type 0: video
#codec_id 0: rawvideo
#dimensions 0: 832x480
#sar 0: 0/1
0,          0,          0,        1,   599040, 0x10e6d882
0,          1,          1,        1,   599040, 0x10e6d882
0,          2,          2,        1,   599040, 0x10e6d882
0,          3,          3,        1,   599040, 0x2fc276f4
0,          4,          4,        1,   599040, 0x087c24a5
0,          5,          5,        1,   599040, 0x4355f37b
0,          6,          6,        1,   599040, 0x4eefa76a
0,          7,          7,        1,   599040, 0x270f268a
0,          8,          8,        1,   599040, 0xa9be7d32
0,          9,          9,        1,   599040, 0xbf75116e
0,         10,         10,        1,   599040, 0x7d8a4ae2
0,         11,         11,        1,   599040, 0x53e1c0d8
0,         12,         12,        1,   599040, 0x076c3784
0,         13,         13,        1,   599040, 0x49bf1c8d
0,         14,         14,        1,   599040, 0xe7b537b9
0,         15,         15,        1,   599040, 0xddc81bcb
0,         16,         16,        1,   599040, 0x7761c601
0,         17,         17,        1,   599040, 0xf5993c06
0,         18,         18,        1,   599040, 0x6e21e3e4
0,         19,         19,        1,   599040, 0x5964c0b5
0,         20,         20,        1,   599040, 0xb10e8493
0,         21,         21,        1,   599040, 0x17b1c730
0,         22,         22,        1,   599040, 0xa55efe36
0,         23,         23,        1,   599040, 0x3cb75b6c
0,         24,         24,        1,   599040, 0xf8ed6b0c
0,         25,         25,        1,   599040, 0xf1e4bc7d
0,         26,         26,        1,   599040, 0x23236fd9
0,         27,         27,        1,   599040, 0x8d8b2892
0,         28,         28,        1,   599040, 0x3e311573
0,         29,         29,        1,   599040, 0x81764911
0,         30,         30,        1,   599040, 0x14d1802e
0,         31,         31,        1,   599040, 0x0e065246
0,         32,         32,        1,   599040, 0xc8a607cf
0,         33,         33,        1,   599040, 0x23b210e7
0,         34,         34,        1,   599040, 0x2c80da1c
0,         35,         35,        1,   599040, 0x3e6e896b
0,         36,         36,        1,   599040, 0x5a4aa035
0,         37,         37,        1,   599040, 0x1b2d2d20
0,         38,         38,        1,   599040, 0x12f928fc
0,         39,         39,        1,   599040, 0x49ae617c
0,         40,         40,        1,   599040, 0x77fe18a4
0,         41,         41,        1,   599040, 0x296c1ef7
0,         42,         42,        1,   599040, 0x72cad62f
0,         43,         43,        1,   599040, 0xbf82d227
0,         44,         44,        1,   599040, 0xf2bef8b1
0,         45,         45,        1,   599040, 0xba67092f
0,         46,         46,        1,   599040, 0xd5551dab
0,         47,         47,        1,   599040, 0xf973b042
0,         48,         48,        1,   599040, 0xdddf947a
0,         49,         49,        1,   599040, 0x00a3e427
0,         50,         50,        1,   599040, 0x23d8a74d
0,         51,         51,        1,   599040, 0x1b84b0a9
0,         52,         52,        1,   599040, 0x94bfcee9
0,         53,         53,        1,   599040, 0xf0b6a9cb
0,         54,         54,        1,   599040, 0x4a950fbe
0,         55,         55,        1,   599040, 0x925c319c
0,         56,         56,        1,   599040, 0x76511c5c
0,         57,         57,        1,   599040, 0x1f59398f
0,         58,         58,        1,   599040, 0x14af6c11
0,         59,         59,        1,   599040, 0x20c87118
